<svg xmlns="http://www.w3.org/2000/svg" xmlns:xlink="http://www.w3.org/1999/xlink" viewBox="0 0 542.14 502.22"><defs><style>.cls-1,.cls-24{fill:none;}.cls-2{isolation:isolate;}.cls-3{fill:#add0ed;}.cls-4{clip-path:url(#clip-path);}.cls-5,.cls-6,.cls-8{opacity:0.45;}.cls-14,.cls-17,.cls-18,.cls-26,.cls-29,.cls-5,.cls-6,.cls-8{mix-blend-mode:overlay;}.cls-5{fill:url(#Degradado_sin_nombre_8);}.cls-6{fill:url(#Degradado_sin_nombre_8-2);}.cls-7{fill:#222d48;}.cls-14,.cls-17,.cls-26,.cls-29,.cls-8{fill:#11182e;}.cls-9{fill:#ffb33c;}.cls-10{clip-path:url(#clip-path-2);}.cls-11{fill:#273352;}.cls-12{fill:#0a1327;}.cls-13{clip-path:url(#clip-path-3);}.cls-14{opacity:0.4;}.cls-15{fill:#ffd38f;}.cls-16{clip-path:url(#clip-path-4);}.cls-17{opacity:0.76;}.cls-18{fill:#fff;}.cls-18,.cls-29{opacity:0.25;}.cls-19{fill:#ede3c3;}.cls-20{fill:#b8ad8f;}.cls-21{fill:#e3d2a1;}.cls-22{fill:#fff1c9;}.cls-23{fill:#9e0826;}.cls-24{stroke:#fffae8;stroke-miterlimit:10;stroke-width:1.85px;}.cls-25{clip-path:url(#clip-path-5);}.cls-26{opacity:0.5;}.cls-27{fill:#bf0d32;}.cls-28{fill:#ff9215;}.cls-30{fill:#fdac39;}</style><clipPath id="clip-path"><circle class="cls-1" cx="205.66" cy="205.66" r="205.66"/></clipPath><linearGradient id="Degradado_sin_nombre_8" x1="211.58" y1="144.95" x2="395.82" y2="321.23" gradientUnits="userSpaceOnUse"><stop offset="0"/><stop offset="0.99" stop-opacity="0"/></linearGradient><linearGradient id="Degradado_sin_nombre_8-2" x1="181.13" y1="108.48" x2="382.54" y2="301.19" gradientTransform="matrix(0.68, 0.38, 0.38, 0.56, -90.25, 105.49)" xlink:href="#Degradado_sin_nombre_8"/><clipPath id="clip-path-2"><path class="cls-1" d="M205.66,180.15,106.7,159l11.73,75.86s44.61,35.2,87.23,35.2,87.22-35.2,87.22-35.2L304.61,159Z"/></clipPath><clipPath id="clip-path-3"><path class="cls-1" d="M372.66,137.14l-167-21.2-167,21.2V147.3l69,17.84,10.78,69.76s44.61,35.2,87.23,35.2,87.22-35.2,87.22-35.2l10.78-69.76,69-17.84Z"/></clipPath><clipPath id="clip-path-4"><path class="cls-1" d="M276.6,269.85a5.48,5.48,0,1,0-5,0c-3.31,2.77-8.72,11.79-8.72,41.31,0,0,2.63,2.93,11.22,2.93s11.23-2.93,11.23-2.93C285.32,281.64,279.91,272.62,276.6,269.85Z"/></clipPath><clipPath id="clip-path-5"><path class="cls-1" d="M201.21,275.44l-46.4-22.5L70.57,211.4c-.59-.37-1.19-.73-1.82-1.05A23.84,23.84,0,0,0,66,209.14l-.35-.17,0,0A24.69,24.69,0,0,0,46.1,254.22c51.18,27.3,52.54,29,52.54,29l27.59,14.25L176,323.61s-9.84-6-12-16.95,4-20.7,6.57-23.65S181.79,270.7,201.21,275.44Z"/></clipPath></defs><title>Asset 8</title><g class="cls-2"><g id="Layer_2" data-name="Layer 2"><g id="OBJECTS"><circle class="cls-3" cx="205.66" cy="205.66" r="205.66"/><g class="cls-4"><polygon class="cls-5" points="542.14 282.16 373.47 137.57 118.43 234.9 386.19 464.08 542.14 282.16"/><polygon class="cls-6" points="374.71 454.44 190.31 296.37 41.18 251.5 333.75 502.22 374.71 454.44"/></g><path class="cls-7" d="M205.66,180.15,106.7,159l11.73,75.86s44.61,35.2,87.23,35.2,87.22-35.2,87.22-35.2L304.61,159Z"/><path class="cls-8" d="M205.66,255.44c-42.62,0-89.45-36.1-89.45-36.1l2.22,14.39s44.61,35.2,87.23,35.2,87.22-35.2,87.22-35.2l2.22-14.39S248.27,255.44,205.66,255.44Z"/><path class="cls-9" d="M205.66,256.61c-42.62,0-89.45-36.09-89.45-36.09l2.22,14.38s44.61,35.2,87.23,35.2,87.22-35.2,87.22-35.2l2.22-14.38S248.27,256.61,205.66,256.61Z"/><g class="cls-10"><path class="cls-8" d="M106.23,155.12l3.4,22.88,95.71,40.48,83.82-38.33s-26.29,65.16-83.5,90c0,0,47.11,13.18,91.69-24.79s28.16-104.43,28.16-104.43Z"/></g><polygon class="cls-7" points="205.66 115.94 38.66 137.13 38.66 147.3 205.66 190.49 372.66 147.3 372.66 137.13 205.66 115.94"/><polygon class="cls-11" points="38.66 137.13 38.66 147.3 205.66 190.49 205.66 171.72 38.66 137.13"/><polygon class="cls-12" points="372.66 137.13 372.66 147.3 205.66 190.49 205.66 171.72 372.66 137.13"/><g class="cls-13"><path class="cls-14" d="M277.43,156.74c-3.19-3.84-35.78-10.63-56.59-14.62-.65-2.8-6.67-5-14-5-7.77,0-14.07,2.45-14.07,5.47s6.3,5.48,14.07,5.48c5.2,0,9.73-1.11,12.17-2.74,27.15,5.22,53.12,11.2,55.68,13.6,2.48,5.18,1.1,70.06-.36,109.91l3.51.13c0-.27,1-26.92,1.47-53.8C280.28,160.17,278.36,157.85,277.43,156.74Z"/></g><path class="cls-9" d="M275.85,270.16l-3.51-.12c1.46-39.86,2.84-104.74.36-109.92-2.92-2.74-36.45-10.16-67.36-15.78l.63-3.46c15.29,2.78,65.48,12.22,69.48,17,.92,1.12,2.85,3.44,1.86,58.45C276.83,243.24,275.86,269.9,275.85,270.16Z"/><path class="cls-9" d="M279.57,265a5.48,5.48,0,1,0-5.48,5.47A5.48,5.48,0,0,0,279.57,265Z"/><path class="cls-9" d="M274.09,268.63s-11.22,0-11.22,42.53c0,0,2.63,2.93,11.22,2.93s11.23-2.93,11.23-2.93C285.32,268.63,274.09,268.63,274.09,268.63Z"/><path class="cls-15" d="M265.63,312.84s-.87-6.72.68-19"/><path class="cls-15" d="M271.82,314.07a138.84,138.84,0,0,1,.5-20.28"/><path class="cls-15" d="M277.53,313.88a140.05,140.05,0,0,0,0-20.09"/><path class="cls-15" d="M282.84,312.8a72.13,72.13,0,0,0-.46-19"/><g class="cls-16"><path class="cls-8" d="M271.54,251.33s.07,8.21,2.55,8.21,7.13,9.09-2.5,10.31c0,0,3.81.47,6.13,7.29,3.87,11.37,5.12,35.66-14.85,34l3.58,11.38,31.88-1.92-2-58.34Z"/></g><path class="cls-17" d="M220.37,143.58c-5.92-1.14-11-2.09-14.4-2.7l-.63,3.46c3.73.68,7.49,1.38,11.24,2.1C218.51,145.67,219.86,144.69,220.37,143.58Z"/><ellipse class="cls-9" cx="205.66" cy="142.61" rx="14.07" ry="5.48"/><ellipse class="cls-8" cx="205.66" cy="142.61" rx="14.07" ry="5.48"/><ellipse class="cls-9" cx="203.62" cy="141.93" rx="11.16" ry="4.34"/><path class="cls-18" d="M204.08,139.92c.19,1-1.88,2.26-4.64,2.79s-5.14.14-5.34-.87,1.88-2.26,4.64-2.79S203.88,138.9,204.08,139.92Z"/><path class="cls-18" d="M272.93,261c.49.33.32,1.45-.39,2.5s-1.69,1.64-2.18,1.3-.31-1.45.4-2.5S272.44,260.7,272.93,261Z"/><path class="cls-18" d="M273.09,274.07c1.92.36,2.92,3.62,2.24,7.28s-2.79,6.35-4.7,6-2.92-3.62-2.24-7.28S271.17,273.72,273.09,274.07Z"/><path class="cls-19" d="M133.45,300.69,178,323.61c8.4-35.56,25.71-45.51,25.71-45.51l-45-23.23"/><path class="cls-19" d="M166,317.05c.72.54,10.59,7.19,15.13,8s18.46,2.93,24-11.26-6.64-22.86-6.64-22.86-4.64-5.68-14.44-2.84S166,317.05,166,317.05Z"/><path class="cls-19" d="M182.15,277.6c.55,1.09,37.53,21.32,37.53,21.32.91,2.32-10.62,46-54.83,17.31l-10-16.81s4.92-24.87,17.31-26.81,28.49.12,35.75,9.66,3.62,17.35,3.62,17.35Z"/><path class="cls-20" d="M177.05,287.26c.55.09,8-3.46,8-3.46s11.14,5.05,13.4,7.09,2.27,7.39,2.27,7.39Z"/><path class="cls-21" d="M197.1,288.05l-44.92-22.57-6.65,23.76,44.37,23.68c-13.76-7.92-7.31-14.81-6.53-20.82S197.1,288.05,197.1,288.05Z"/><path class="cls-22" d="M201.21,275.44l-46.4-22.5L70.57,211.4c-.59-.37-1.19-.73-1.82-1.05A23.84,23.84,0,0,0,66,209.14l-.35-.17,0,0A24.69,24.69,0,0,0,46.1,254.22c1.06.55,80.13,43.22,80.13,43.22h0L176,323.61s-9.84-6-12-16.95,4-20.7,6.57-23.65S181.79,270.7,201.21,275.44Z"/><path class="cls-23" d="M126.23,297.44c-.4-.21-.79-.43-1.18-.65a26.24,26.24,0,0,1,25.25-46l-28.46-14.69a26.24,26.24,0,1,0-24.06,46.63Z"/><path class="cls-24" d="M219.69,298.37c0,14.87-13.14,30.8-36.35,27-12.57-2.07-22.69-14.11-18.51-31.55a26,26,0,0,1,31.3-19.2,20.77,20.77,0,0,1,15.37,25,16.62,16.62,0,0,1-20,12.29,13.29,13.29,0,0,1-9.83-16A10.63,10.63,0,0,1,194.45,288a8.5,8.5,0,0,1,6.29,10.26"/><g class="cls-25"><path class="cls-26" d="M23.35,224.68l141.48,69.1s-6.08,28.76,24.07,32S187.28,357,187.28,357l-171-76.49Z"/></g><path class="cls-27" d="M100.06,267.79s-4.38,20.66-.65,37.28A45.3,45.3,0,0,1,104.59,295a82,82,0,0,0,8.23,10.76s-4.46-32.5-2.17-41.29Z"/><path class="cls-27" d="M92,261.05s-12.77,16.83-16.41,33.11a47.63,47.63,0,0,1,9-7,76.64,76.64,0,0,0,3,12.77s9.71-30.79,15.53-37.79Z"/><path class="cls-26" d="M123.61,257.92c.17-1.83,1.59-3.69,1.29-5.42s-2.3-3.05-3-4.66-.46-4-1.61-5.33-3.49-1.49-5-2.53-2.35-3.19-4.05-3.82-3.73.47-5.56.31-3.69-1.59-5.42-1.29-3.06,2.29-4.67,3-4,.46-5.33,1.61-1.48,3.49-2.52,5-3.2,2.35-3.82,4.05.47,3.73.3,5.56-1.58,3.69-1.28,5.42,2.29,3.06,3,4.66.46,4,1.6,5.34,3.5,1.48,5,2.52,2.34,3.19,4,3.82,3.73-.47,5.56-.31,3.69,1.59,5.42,1.29,3-2.29,4.66-3,4-.46,5.33-1.61,1.49-3.49,2.53-5,3.19-2.34,3.81-4S123.45,259.75,123.61,257.92Z"/><path class="cls-28" d="M122.49,256.5c.16-1.8,1.56-3.63,1.26-5.34s-2.26-3-3-4.6-.46-3.9-1.59-5.25-3.44-1.47-4.89-2.49-2.31-3.15-4-3.76-3.68.46-5.48.3-3.64-1.57-5.34-1.27-3,2.26-4.6,3-3.91.45-5.26,1.58-1.46,3.44-2.49,4.89-3.15,2.31-3.76,4,.46,3.68.3,5.48-1.56,3.64-1.27,5.35,2.26,3,3,4.59.45,3.91,1.58,5.26,3.44,1.47,4.89,2.49,2.32,3.15,4,3.76,3.67-.46,5.48-.3,3.64,1.56,5.34,1.27,3-2.26,4.6-3,3.9-.45,5.25-1.58S118,267.43,119,266s3.15-2.31,3.76-4S122.32,258.31,122.49,256.5Z"/><circle class="cls-29" cx="103.07" cy="254.77" r="15.37" transform="translate(-29.12 13.82) rotate(-6.72)"/><path class="cls-30" d="M117.86,255.56A14.84,14.84,0,1,0,101.75,269,14.85,14.85,0,0,0,117.86,255.56Z"/></g></g></g></svg>