<svg height="512pt" viewBox="0 0 512 512" width="512pt" xmlns="http://www.w3.org/2000/svg"><path d="m53.976562 10h448.015626v268.738281h-448.015626zm0 0" fill="#fff"/><path d="m191.640625 256.128906v221.871094c0 13.253906-10.746094 24-24 24s-24-10.746094-24-24v-154.988281 154.988281c0 13.253906-10.746094 24-24 24s-24-10.746094-24-24v-221.871094zm0 0" fill="#ffcb7c"/><path d="m143.640625 27.75c21.988281 0 39.8125 17.824219 39.8125 39.8125v5.308594c0 21.984375-17.824219 39.8125-39.8125 39.8125s-39.8125-17.824219-39.8125-39.8125v-5.308594c0-21.988281 17.824219-39.8125 39.8125-39.8125zm0 0" fill="#f2d1a5"/><path d="m95.644531 190.179688v65.945312h95.984375v-84.636719l31.570313 31.746094c10.761719 10.820313 28.082031 11.410156 39.558593 1.347656l24.273438-21.285156c8.167969-7.160156 8.550781-19.746094.832031-27.390625-6.550781-6.484375-16.839843-7.242188-24.269531-1.785156l-17.25 12.675781-31.898438-31.980469c-14.144531-14.179687-33.347656-22.152344-53.375-22.152344h-31.097656c-24.570312 0-47.335937 12.894532-59.976562 33.964844l-57.445313 95.742188c-3.890625 6.488281-3.328125 14.714844 1.410157 20.613281 7.433593 9.253906 21.621093 8.949219 28.648437-.617187zm0 0" fill="#fff"/><path d="m95.644531 190.179688v65.945312h95.984375v-84.636719l31.570313 31.746094c10.761719 10.820313 28.082031 11.410156 39.558593 1.347656l24.273438-21.285156c8.167969-7.160156 8.550781-19.746094.832031-27.390625-6.550781-6.484375-16.839843-7.242188-24.269531-1.785156l-17.25 12.675781-31.898438-31.980469c-14.144531-14.179687-33.347656-22.152344-53.375-22.152344h-31.097656c-24.570312 0-47.335937 12.894532-59.976562 33.964844l-57.445313 95.742188c-3.890625 6.488281-3.328125 14.714844 1.410157 20.613281 7.433593 9.253906 21.621093 8.949219 28.648437-.617187zm0 0" fill="#ff6977"/><path d="m309.8125 172.308594h48v49.058594h-48zm0 0" fill="#cbe558"/><path d="m357.8125 139.207031h48v82.160157h-48zm0 0" fill="#91def5"/><path d="m405.8125 112.632812h48v108.734376h-48zm0 0" fill="#ff6977"/><path d="m457.132812 367.847656h-.421874c-15.28125 0-27.664063 12.386719-27.664063 27.667969v9.128906c0 15.28125 12.382813 27.667969 27.664063 27.667969h.421874c15.277344 0 27.664063-12.386719 27.664063-27.667969v-9.128906c0-15.28125-12.386719-27.667969-27.664063-27.667969zm0 0" fill="#f2d1a5"/><path d="m457.261719 432.3125h-.679688c-24.695312 0-44.71875 20.019531-44.71875 44.714844v24.972656h90.113281v-24.972656c0-24.695313-20.019531-44.714844-44.714843-44.714844zm0 0" fill="#b0e7f8"/><path d="m367.019531 367.847656h-.421875c-15.277344 0-27.664062 12.386719-27.664062 27.667969v9.128906c0 15.28125 12.386718 27.667969 27.664062 27.667969h.421875c15.277344 0 27.664063-12.386719 27.664063-27.667969v-9.128906c0-15.28125-12.386719-27.667969-27.664063-27.667969zm0 0" fill="#f2d1a5"/><path d="m367.148438 432.3125h-.679688c-24.695312 0-44.714844 20.019531-44.714844 44.714844v24.972656h90.109375v-24.972656c0-24.695313-20.019531-44.714844-44.714843-44.714844zm0 0" fill="#b0e7f8"/><path d="m276.90625 367.847656h-.421875c-15.277344 0-27.664063 12.386719-27.664063 27.667969v9.128906c0 15.28125 12.386719 27.667969 27.664063 27.667969h.421875c15.28125 0 27.664062-12.386719 27.664062-27.667969v-9.128906c0-15.28125-12.382812-27.667969-27.664062-27.667969zm0 0" fill="#f2d1a5"/><path d="m277.039062 432.3125h-.683593c-24.695313 0-44.714844 20.019531-44.714844 44.714844v24.972656h90.113281v-24.972656c0-24.695313-20.019531-44.714844-44.714844-44.714844zm0 0" fill="#b0e7f8"/><path d="m501.992188 0h-448.015626c-5.519531 0-10 4.476562-10 10v160.554688l-40 66.671874c-6.019531 10.03125-5.140624 22.898438 2.1875 32.019532 5.375 6.691406 13.3125 10.492187 21.863282 10.492187.210937 0 .417968 0 .625-.007812 5.597656-.121094 10.878906-1.859375 15.324218-4.933594v3.9375c0 5.523437 4.480469 10 10 10h31.664063v189.265625c0 18.746094 15.253906 34 34 34 9.359375 0 17.847656-3.800781 24-9.941406 6.15625 6.140625 14.640625 9.941406 24 9.941406 18.75 0 34-15.253906 34-34v-189.265625h122.714844c5.523437 0 10-4.476563 10-10 0-5.519531-4.476563-10-10-10h-122.714844v-12.605469c0-.074218-.007813-.144531-.011719-.214844v-60.1875l14.480469 14.558594c14.449219 14.527344 37.835937 15.324219 53.238281 1.816406l24.277344-21.285156c2.511719-2.203125 4.59375-4.824218 6.1875-7.707031v38.257813c0 5.523437 4.476562 10 10 10h144c5.519531 0 10-4.476563 10-10v-108.734376c0-5.523437-4.480469-10-10-10h-48c-5.523438 0-10 4.476563-10 10v16.574219h-38c-5.523438 0-10 4.476563-10 10v23.101563h-38c-2.597656 0-4.957031.996094-6.734375 2.621094-.925781-6.066407-3.769531-11.757813-8.179687-16.125-10.105469-10.011719-25.757813-11.160157-37.226563-2.738282l-10.320313 7.582032-25.828124-25.894532c-11.195313-11.226562-24.964844-18.941406-39.976563-22.621094 7.414063-8.699218 11.90625-19.964843 11.90625-32.265624v-5.304688c0-22.308594-14.742187-41.242188-34.996094-47.5625h333.535157v248.734375h-82.730469c-5.523438 0-10 4.480469-10 10 0 5.523437 4.476562 10 10 10h92.730469c5.523437 0 10-4.476563 10-10v-268.734375c0-5.523438-4.476563-10-10-10zm-86.179688 122.632812h28v88.734376h-28zm-48 26.574219h28v62.160157h-28zm-48 33.101563h28v29.058594h-28zm-255.835938 86.425781v-18.5625l21.667969-29.492187v35.351562c0 .03125-.003906.0625-.003906.097656v12.609375h-21.664063zm103.664063 223.265625c-7.71875 0-14-6.28125-14-14v-154.988281c0-5.523438-4.476563-10-10-10-5.519531 0-10 4.476562-10 10v154.988281c0 7.71875-6.28125 14-14 14s-14-6.28125-14-14v-211.875h76v211.875c0 7.71875-6.28125 14-14 14zm71.621094-318.140625c3.492187 3.5 9.019531 3.925781 13.003906.996094l17.25-12.675781c3.480469-2.558594 8.238281-2.207032 11.3125.835937 1.738281 1.722656 2.65625 4.015625 2.582031 6.464844-.074218 2.445312-1.128906 4.683593-2.972656 6.296875l-24.273438 21.285156c-7.488281 6.566406-18.855468 6.175781-25.871093-.882812l-31.570313-31.742188c-2.855468-2.871094-7.164062-3.738281-10.90625-2.191406-3.742187 1.542968-6.183594 5.191406-6.183594 9.242187v74.636719h-75.988281v-55.945312c0-4.324219-2.773437-8.15625-6.882812-9.503907-4.105469-1.347656-8.617188.101563-11.175781 3.582031l-53.035157 72.1875c-1.496093 2.035157-3.804687 3.234376-6.328125 3.289063-.0625.003906-.121094.003906-.179687.003906-2.460938 0-4.742188-1.09375-6.285157-3.015625-2.109374-2.625-2.359374-6.324218-.628906-9.207031l57.441406-95.742187c10.769532-17.953126 30.46875-29.105469 51.402344-29.105469h3.664063v29.671875c0 5.519531 4.476562 10 10 10 5.523437 0 10-4.480469 10-10v-29.671875h7.433593c17.496094 0 33.9375 6.820312 46.292969 19.210937zm-65.808594-106.296875v5.308594c0 16.242187-13.0625 29.488281-29.234375 29.796875h-1.15625c-16.171875-.308594-29.230469-13.554688-29.230469-29.796875v-5.308594c0-16.4375 13.371094-29.8125 29.808594-29.8125 16.441406 0 29.8125 13.371094 29.8125 29.8125zm-79.625 0v5.308594c0 12.800781 4.859375 24.488281 12.824219 33.320312-17.179688 5.28125-32.371094 16.269532-42.675782 31.320313v-117.511719h64.847657c-20.253907 6.324219-34.996094 25.253906-34.996094 47.5625zm0 0"/><path d="m325.136719 106.601562c1.847656 3.226563 5.214843 5.03125 8.683593 5.03125 1.6875 0 3.394532-.425781 4.960938-1.324218l71.746094-41.105469c.847656 2.125 2.417968 3.976563 4.601562 5.132813 1.492188.792968 3.09375 1.167968 4.671875 1.167968 3.585938 0 7.050781-1.933594 8.847657-5.320312l10-18.867188c.019531-.035156.027343-.070312.046874-.101562.179688-.351563.34375-.707032.480469-1.070313.015625-.039062.023438-.082031.039063-.121093.117187-.324219.214844-.652344.296875-.988282.027343-.117187.050781-.234375.078125-.351562.058594-.28125.105468-.5625.140625-.84375.011719-.105469.027343-.207032.035156-.3125.070313-.769532.050781-1.550782-.0625-2.328125-.011719-.09375-.03125-.183594-.046875-.277344-.050781-.300781-.117188-.597656-.199219-.894531-.027343-.097656-.050781-.199219-.082031-.296875-.097656-.332031-.214844-.65625-.351562-.976563-.019532-.050781-.035157-.097656-.054688-.144531-.144531-.320313-.300781-.636719-.480469-.949219-.019531-.035156-.042969-.066406-.0625-.101562-.015625-.027344-.027343-.054688-.042969-.082032-.042968-.074218-.101562-.136718-.144531-.207031-.15625-.246093-.320312-.484375-.492187-.710937-.078125-.101563-.152344-.199219-.234375-.292969-.195313-.238281-.402344-.460937-.613281-.679687-.0625-.058594-.117188-.121094-.179688-.179688-.289062-.277344-.589844-.535156-.902344-.773438-.027344-.019531-.054687-.035156-.082031-.054687-.289063-.210937-.582031-.402344-.886719-.578125-.09375-.054688-.183594-.101562-.277344-.152344-.261718-.144531-.527343-.273437-.800781-.386718-.09375-.042969-.183593-.082032-.273437-.121094-.359375-.140625-.726563-.269532-1.097656-.367188-.039063-.011718-.078126-.015625-.117188-.027344-.339844-.085937-.683594-.152343-1.03125-.203124-.105469-.015626-.207031-.027344-.308594-.039063-.324218-.035156-.648437-.058594-.976562-.0625-.050782 0-.101563-.011719-.152344-.011719h-.230469-.003906-23.765625c-5.519531 0-10 4.480469-10 10 0 2.507813.933594 4.792969 2.457031 6.550782l-69.425781 39.773437c-4.796875 2.746094-6.453125 8.855469-3.707031 13.648437zm0 0"/><path d="m485.039062 429.914062c6.058594-6.6875 9.757813-15.554687 9.757813-25.269531v-9.132812c0-20.769531-16.898437-37.664063-37.664063-37.664063h-.421874c-20.769532 0-37.664063 16.894532-37.664063 37.664063v9.132812c0 9.714844 3.695313 18.582031 9.757813 25.269531-6.695313 3.960938-12.46875 9.304688-16.941407 15.640626-4.46875-6.332032-10.246093-11.679688-16.9375-15.640626 6.058594-6.6875 9.757813-15.554687 9.757813-25.269531v-9.132812c0-20.769531-16.894532-37.664063-37.664063-37.664063h-.421875c-20.769531 0-37.664062 16.894532-37.664062 37.664063v9.132812c0 9.714844 3.699218 18.582031 9.757812 25.269531-6.691406 3.960938-12.46875 9.304688-16.9375 15.640626-4.472656-6.332032-10.246094-11.679688-16.941406-15.640626 6.0625-6.6875 9.761719-15.554687 9.761719-25.269531v-9.132812c0-20.769531-16.898438-37.664063-37.667969-37.664063h-.417969c-20.769531 0-37.667969 16.894532-37.667969 37.664063v9.132812c0 9.714844 3.699219 18.582031 9.761719 25.269531-16.109375 9.53125-26.941406 27.078126-26.941406 47.113282v24.972656c0 5.523438 4.480469 10 10 10h270.335937c5.523438 0 10-4.476562 10-10v-24.972656c0-20.035156-10.832031-37.582032-26.9375-47.113282zm-45.992187-34.398437c0-9.742187 7.921875-17.667969 17.664063-17.667969h.421874c9.738282 0 17.664063 7.925782 17.664063 17.667969v9.132813c0 9.738281-7.925781 17.664062-17.664063 17.664062h-.421874c-9.742188 0-17.664063-7.925781-17.664063-17.664062zm-90.113281 0c0-9.742187 7.925781-17.667969 17.664062-17.667969h.421875c9.738281 0 17.664063 7.925782 17.664063 17.667969v9.132813c0 9.738281-7.925782 17.664062-17.664063 17.664062h-.421875c-9.738281 0-17.664062-7.925781-17.664062-17.664062zm-90.113282 0c0-9.742187 7.925782-17.667969 17.664063-17.667969h.421875c9.742188 0 17.664062 7.925782 17.664062 17.667969v9.132813c0 9.738281-7.921874 17.664062-17.664062 17.664062h-.421875c-9.738281 0-17.664063-7.925781-17.664063-17.664062zm-17.179687 81.511719c0-19.144532 15.574219-34.714844 34.714844-34.714844h.683593c19.140626 0 34.714844 15.570312 34.714844 34.714844v14.972656h-70.113281zm90.113281 0c0-19.144532 15.574219-34.714844 34.714844-34.714844h.679688c19.144531 0 34.714843 15.570312 34.714843 34.714844v14.972656h-70.109375zm160.222656 14.972656h-70.113281v-14.972656c0-19.144532 15.574219-34.714844 34.71875-34.714844h.679688c19.144531 0 34.714843 15.570312 34.714843 34.714844zm0 0"/><path d="m373.667969 285.808594c1.859375-1.871094 2.929687-4.4375 2.929687-7.070313 0-2.628906-1.070312-5.207031-2.929687-7.066406-1.859375-1.871094-4.441407-2.933594-7.070313-2.933594-2.640625 0-5.210937 1.0625-7.070312 2.933594-1.871094 1.859375-2.929688 4.4375-2.929688 7.066406 0 2.632813 1.058594 5.210938 2.929688 7.070313 1.859375 1.859375 4.429687 2.929687 7.070312 2.929687 2.628906 0 5.210938-1.070312 7.070313-2.929687zm0 0"/></svg>